<svg id="Layer_1" enable-background="new 0 0 511.919 511.919" height="512" viewBox="0 0 511.919 511.919" width="512" xmlns="http://www.w3.org/2000/svg"><g><g><path d="m303.034 139.388c0-5.523-4.477-10-10-10s-10 4.477-10 10c0 36.883 27.483 67.449 63.042 72.342v27.105h-31.158c-5.523 0-10 4.477-10 10s4.477 10 10 10h82.316c5.523 0 10-4.477 10-10s-4.477-10-10-10h-31.158v-27.105c35.574-4.891 63.07-35.458 63.07-72.342 0-5.523-4.477-10-10-10s-10 4.477-10 10c0 29.248-23.807 53.043-53.07 53.043-29.248 0-53.042-23.795-53.042-53.043z"/><path d="m388.78 139.388v-56.92c0-18.034-14.671-32.706-32.705-32.706s-32.705 14.672-32.705 32.706v56.92c0 18.034 14.671 32.706 32.705 32.706s32.705-14.672 32.705-32.706zm-45.41 0v-56.92c0-7.006 5.699-12.706 12.705-12.706s12.705 5.7 12.705 12.706v56.92c0 7.006-5.699 12.706-12.705 12.706s-12.705-5.7-12.705-12.706z"/><path d="m163.437 297.67h48.585c5.523 0 10-4.477 10-10s-4.477-10-10-10h-48.585c-5.523 0-10 4.477-10 10s4.477 10 10 10z"/><path d="m89.425 297.67h24.009c5.523 0 10-4.477 10-10s-4.477-10-10-10h-24.009c-5.523 0-10 4.477-10 10s4.477 10 10 10z"/><path d="m89.425 349.913h202.503c5.523 0 10-4.477 10-10s-4.477-10-10-10h-202.503c-5.523 0-10 4.477-10 10s4.477 10 10 10z"/><path d="m341.902 382.127h-89.999c-5.523 0-10 4.477-10 10s4.477 10 10 10h89.999c5.523 0 10-4.477 10-10s-4.477-10-10-10z"/><path d="m191.896 382.127h-102.471c-5.523 0-10 4.477-10 10s4.477 10 10 10h102.47c5.523 0 10-4.477 10-10s-4.477-10-9.999-10z"/><path d="m252.896 67.693c2.559 0 5.119-.976 7.071-2.929l.028-.028c3.905-3.905 3.891-10.223-.014-14.128-3.905-3.904-10.25-3.89-14.157.014-3.905 3.905-3.905 10.237 0 14.143 1.953 1.952 4.513 2.928 7.072 2.928z"/><path d="m466.326 50.622c-23.777-23.778-53.876-38.97-87.043-43.933-32.504-4.862-65.081.441-94.205 15.342-4.917 2.516-6.863 8.541-4.348 13.457 2.516 4.916 8.541 6.863 13.457 4.348 52.654-26.939 116.147-16.922 157.996 24.928 52.994 52.996 52.994 139.226 0 192.222-25.667 25.667-59.798 39.804-96.108 39.804-36.309 0-70.441-14.136-96.108-39.804-41.849-41.85-51.866-105.346-24.927-158.001 2.516-4.917.569-10.942-4.348-13.457-4.918-2.518-10.942-.569-13.457 4.348-14.9 29.124-20.205 61.7-15.341 94.207 2.163 14.454 6.269 28.324 12.181 41.344h-99.62c-63.111 0-114.455 51.358-114.455 114.486 0 28.711 10.778 56.213 30.349 77.439 17.404 18.877 40.304 31.256 65.229 35.426l1.284 44.492c.104 3.626 2.165 6.911 5.383 8.584 1.451.754 3.033 1.127 4.612 1.127 1.924 0 3.843-.555 5.506-1.652l77.261-50.959h127.249c63.11 0 114.455-51.345 114.455-114.457 0-13.392-2.296-26.421-6.821-38.863 15.3-7.484 29.422-17.526 41.819-29.922 60.791-60.794 60.791-159.712 0-220.506zm-54.998 289.291c0 52.084-42.372 94.457-94.455 94.457h-130.25c-1.958 0-3.872.575-5.506 1.652l-64.782 42.729-1.013-35.094c-.146-5.073-4.07-9.232-9.125-9.673-48.335-4.222-86.197-45.543-86.197-94.071 0-52.1 42.372-94.486 94.455-94.486h110.565c5.947 9.185 12.898 17.794 20.805 25.701 29.445 29.446 68.599 45.662 110.25 45.662 17.237 0 34.042-2.785 49.912-8.128 3.542 10.019 5.341 20.492 5.341 31.251z"/></g></g></svg>