<svg xmlns="http://www.w3.org/2000/svg" viewBox="0 0 141 141" width="141" height="141">
	<defs>
		<linearGradient id="grd1" gradientUnits="userSpaceOnUse"  x1="70.499" y1="132.531" x2="70.499" y2="8.449">
			<stop offset="0" stop-color="#ed2d45"  />
			<stop offset="0.991" stop-color="#432b45"  />
		</linearGradient>
	</defs>
	<style>
		tspan { white-space:pre }
		.shp0 { fill: url(#grd1) } 
	</style>
	<g id="BLOCO 6 - PARA SUA EMPRESA">
		<path id="Shape 47" class="shp0" d="M70.5 140.99C31.63 140.99 0 109.37 0 70.49C0 31.62 31.63 -0.01 70.5 -0.01C109.37 -0.01 141 31.62 141 70.49C141 109.37 109.37 140.99 70.5 140.99ZM70.5 12.82C38.7 12.82 12.83 38.69 12.83 70.49C12.83 102.29 38.7 128.16 70.5 128.16C102.3 128.16 128.17 102.29 128.17 70.49C128.17 38.69 102.3 12.82 70.5 12.82ZM107.6 58.22C107.57 53.88 105.64 50.35 101.84 47.71C101.58 47.53 101.28 47.38 100.99 47.23C100.53 47 100.06 46.76 99.91 46.46C99.72 46.07 99.77 45.49 99.82 44.88C99.85 44.58 99.87 44.28 99.87 43.99C99.87 42.45 99.46 41.27 98.65 40.48C97.84 39.69 96.65 39.31 95.15 39.34C92.61 39.4 90.96 41.08 90.94 43.62C90.94 44.15 90.94 44.69 90.94 45.22L90.94 45.49L89.61 45.49C89.61 45.06 89.61 44.63 89.62 44.21C89.63 42.95 89.63 41.66 89.6 40.39C89.52 37.47 88.37 34.93 86.18 32.83C83.76 30.51 80.72 29.57 76.6 29.88C75.8 29.94 75.26 30.5 75.22 31.31C75.18 32.18 75.72 32.81 76.56 32.89C77.3 32.96 78.02 32.93 78.74 32.94C82.51 33.03 85.6 35.49 86.26 38.93C86.55 40.47 86.57 42.06 86.59 43.74C86.6 44.34 86.6 44.94 86.62 45.55L83.33 45.55C83.32 45.44 83.32 45.35 83.32 45.25L83.32 43.7C83.32 42.81 83.33 41.92 83.32 41.02C83.3 38.08 81.38 36.17 78.45 36.16C73.13 36.15 67.8 36.15 62.47 36.16C59.6 36.16 57.67 38.11 57.65 41C57.65 41.82 57.65 42.65 57.65 43.48L57.65 45.23C57.65 45.32 57.65 45.41 57.65 45.5L54.43 45.5L54.43 44.39C54.43 43.29 54.43 42.21 54.43 41.13C54.45 36.31 57.82 32.94 62.62 32.94L66.71 32.93C68.52 32.93 70.34 32.94 72.15 32.93C72.78 32.93 73.27 32.76 73.58 32.43C73.85 32.16 73.99 31.78 73.97 31.34C73.96 30.89 73.76 29.86 72.15 29.85L69.52 29.85C67.12 29.84 64.63 29.83 62.19 29.86C57.01 29.94 52.68 33.45 51.65 38.39C51.39 39.63 51.39 40.91 51.38 42.16C51.38 42.66 51.37 43.17 51.36 43.67C51.33 44.2 51.34 44.72 51.35 45.25L51.35 45.5L50.03 45.5L50.03 43.99C50.03 42.44 49.61 41.26 48.8 40.47C47.98 39.67 46.78 39.29 45.24 39.33C42.83 39.4 41.13 41.13 41.1 43.54L41.1 43.64C41.08 44.51 41.07 45.4 41.11 46.29C41.12 46.56 41.09 46.65 40.77 46.8C37.83 48.19 35.72 50.34 34.51 53.19C34.14 54.05 33.91 54.97 33.68 55.86C33.57 56.26 33.47 56.66 33.36 57.05L33.34 90.82L33.45 91.03C34.09 96.53 38.83 102.29 46.37 102.29C46.46 102.29 46.55 102.29 46.64 102.29C48.28 102.26 49.92 102.27 51.56 102.28C52.28 102.28 53 102.28 53.73 102.28L65.37 102.28C75.08 102.28 84.79 102.29 94.49 102.28C101.8 102.27 107.56 96.77 107.61 89.75C107.68 79.14 107.68 68.53 107.6 58.22ZM60.79 40.45C60.81 39.9 61.33 39.39 61.99 39.29C62.25 39.25 62.53 39.24 62.85 39.24C67.93 39.24 73.02 39.24 78.1 39.24C78.96 39.24 79.49 39.38 79.8 39.69C80.09 39.99 80.23 40.51 80.23 41.35C80.23 42.75 80.22 44.16 80.22 45.51L60.77 45.51C60.77 45.12 60.77 44.73 60.77 44.35C60.76 43.01 60.75 41.74 60.79 40.45ZM46.95 45.15L46.94 45.56L46.81 45.56C46.37 45.55 45.95 45.55 45.54 45.57C45.11 45.59 44.69 45.65 44.25 45.7L44.2 45.71C44.2 45.57 44.2 45.43 44.2 45.3C44.18 44.59 44.17 43.93 44.22 43.27C44.25 42.99 44.3 42.42 45.61 42.42C45.68 42.42 45.76 42.42 45.85 42.42C46.54 42.46 46.91 42.79 46.93 43.42C46.96 43.98 46.95 44.55 46.95 45.15ZM104.55 88.1L104.55 89.13C104.55 94.85 100.23 99.18 94.52 99.19C88.89 99.21 83.25 99.2 77.62 99.2L70.45 99.2L63.31 99.2C57.69 99.2 52.07 99.2 46.45 99.19C41.6 99.19 37.66 96.04 36.64 91.37C36.5 90.73 36.43 90.05 36.43 89.34C36.42 79.1 36.41 68.85 36.42 58.6C36.43 53.73 39.62 49.8 44.37 48.83C44.98 48.7 45.67 48.64 46.41 48.64C62.46 48.63 78.51 48.63 94.56 48.63C100.24 48.64 104.53 52.92 104.54 58.6C104.56 68.43 104.56 78.27 104.55 88.1ZM94.1 43.14C94.16 42.59 94.67 42.46 94.97 42.44C95.72 42.37 96.19 42.44 96.43 42.66C96.68 42.88 96.79 43.32 96.79 44.05L96.79 45.7L94.07 45.52C94.07 45.37 94.06 45.24 94.06 45.1C94.05 44.45 94.03 43.78 94.1 43.14ZM86.17 65.31C84.61 65.31 83.05 65.31 81.49 65.31L79.11 65.31L79.11 63.45C79.11 61.69 79.11 59.96 79.1 58.24C79.09 55.57 77.25 53.67 74.64 53.62C72.13 53.58 69.41 53.58 66.32 53.62C64.31 53.65 62.65 54.86 62.1 56.71C61.96 57.2 61.88 57.75 61.88 58.4C61.86 60.18 61.87 61.97 61.87 63.8L61.87 65.31L59.35 65.31C57.75 65.31 56.16 65.3 54.56 65.32C52.24 65.35 50.3 67.16 50.24 69.36C50.17 72.17 50.17 75.15 50.24 78.48C50.28 80.43 51.84 82.16 53.8 82.43C54.85 82.57 55.93 82.54 56.87 82.51C57.33 82.5 57.72 82.32 57.99 82.02C58.26 81.72 58.39 81.31 58.35 80.87C58.28 80.01 57.7 79.48 56.8 79.46C56.44 79.45 56.08 79.45 55.72 79.45C55.48 79.45 55.24 79.46 55.01 79.45C53.74 79.44 53.29 78.99 53.28 77.73C53.28 75.18 53.28 72.62 53.29 70.07C53.29 68.84 53.73 68.4 54.97 68.4L63.06 68.4C64.38 68.39 64.95 67.83 64.95 66.53L64.96 58.5C64.96 57.14 65.39 56.7 66.75 56.7C69.23 56.69 71.71 56.69 74.2 56.69C75.58 56.7 76.02 57.14 76.02 58.54L76.02 59.87C76.02 62.07 76.02 64.29 76.02 66.49C76.02 67.86 76.56 68.4 77.95 68.4L85.97 68.4C87.25 68.4 87.68 68.83 87.69 70.11C87.69 72.62 87.69 75.12 87.69 77.63C87.69 79.02 87.26 79.45 85.86 79.45L77.98 79.46C76.53 79.46 76.02 79.96 76.02 81.39L76.02 84.48C76.02 86.15 76.02 87.82 76.02 89.49C76.01 90.65 75.53 91.12 74.36 91.13C72.06 91.13 69.76 91.13 67.46 91.13L66.77 91.13C65.38 91.13 64.95 90.7 64.95 89.3L64.95 86.37C64.95 84.65 64.95 82.92 64.95 81.2C64.95 80.05 64.39 79.48 63.24 79.46C62.56 79.45 61.89 79.44 61.21 79.46C60.3 79.49 59.63 80.09 59.59 80.92C59.56 81.79 60.22 82.46 61.18 82.53C61.4 82.54 61.63 82.54 61.87 82.54L61.87 84.85C61.87 86.38 61.87 87.91 61.87 89.44C61.88 92.38 63.69 94.2 66.61 94.21C67.9 94.21 69.19 94.21 70.48 94.21C71.77 94.21 73.06 94.21 74.35 94.21C77.27 94.2 79.09 92.38 79.1 89.46C79.11 87.91 79.11 86.36 79.11 84.82L79.11 82.54L80.97 82.54C82.72 82.55 84.42 82.55 86.13 82.53C88.93 82.51 90.75 80.68 90.77 77.88C90.79 74.63 90.79 72.16 90.77 69.85C90.74 67.15 88.89 65.33 86.17 65.31Z" />
	</g>
</svg>