<svg xmlns="http://www.w3.org/2000/svg" width="171" height="39" viewBox="0 0 171 39"><style>.shp0{fill:#fff}</style><g id="BANNER TOPO - PONTALPLAY!"><path id="PONTALTECH NEGATIVO" d="M30.12 24.47C29.38 23.73 28.41 23.35 27.43 23.35C27.42 23.35 27.42 23.35 27.41 23.35C26.43 23.31 25.44 22.9 24.68 22.14C23.89 21.36 23.49 20.34 23.46 19.34C23.46 19.33 23.46 19.33 23.46 19.33C23.52 18.37 23.92 17.42 24.66 16.68C25.44 15.9 26.46 15.49 27.46 15.47C27.47 15.47 27.47 15.47 27.48 15.47C27.59 15.47 27.69 15.44 27.8 15.43C27.97 15.41 28.13 15.39 28.3 15.35C28.38 15.33 28.45 15.3 28.53 15.28C28.53 15.28 28.53 15.28 28.53 15.28C28.64 15.25 28.75 15.22 28.86 15.18C28.86 15.18 28.86 15.18 28.86 15.18C29 15.12 29.13 15.04 29.26 14.97C29.56 14.8 29.85 14.6 30.11 14.35C30.48 13.97 30.77 13.54 30.95 13.07C31.14 12.61 31.24 12.12 31.24 11.62C31.24 10.88 31.02 10.15 30.6 9.51C30.46 9.29 30.3 9.09 30.11 8.9C29.92 8.72 29.72 8.55 29.51 8.41L29.51 8.41C29.43 8.36 29.34 8.33 29.26 8.28C29.25 8.28 29.25 8.27 29.24 8.27C29.11 8.2 28.98 8.12 28.84 8.06L28.84 8.06C28.73 8.02 28.61 7.99 28.49 7.95C28.48 7.95 28.48 7.95 28.48 7.95C28.36 7.92 28.25 7.87 28.14 7.85C28.14 7.85 28.14 7.85 28.14 7.85C28 7.83 27.87 7.82 27.74 7.81C27.63 7.8 27.52 7.78 27.42 7.78C27.41 7.78 27.41 7.78 27.4 7.78C26.42 7.74 25.43 7.33 24.66 6.57C23.88 5.79 23.47 4.78 23.45 3.77C23.45 3.76 23.45 3.76 23.45 3.75C23.45 3.65 23.42 3.54 23.41 3.44C23.41 3.44 23.41 3.44 23.41 3.44C23.4 3.31 23.4 3.19 23.37 3.07L23.37 3.07C23.35 2.98 23.32 2.88 23.29 2.79C23.25 2.65 23.21 2.51 23.16 2.38C23.16 2.38 23.16 2.38 23.16 2.38C23.1 2.24 23.02 2.1 22.95 1.97C22.9 1.89 22.86 1.8 22.81 1.72L22.81 1.72C22.67 1.51 22.51 1.31 22.32 1.13C20.82 -0.38 18.38 -0.38 16.88 1.13C16.7 1.31 16.54 1.51 16.4 1.72C16.4 1.72 16.4 1.72 16.4 1.72C16.35 1.79 16.32 1.87 16.27 1.94C16.27 1.94 16.27 1.94 16.27 1.95C16.21 2.05 16.15 2.16 16.1 2.27C16.04 2.4 16 2.53 15.95 2.66C15.95 2.67 15.95 2.67 15.95 2.67C15.91 2.8 15.87 2.92 15.84 3.06L15.84 3.06C15.81 3.17 15.81 3.28 15.8 3.39L15.79 3.39C15.78 3.5 15.76 3.6 15.75 3.71C15.75 3.71 15.75 3.72 15.75 3.72C15.74 4.74 15.33 5.77 14.54 6.57C13.77 7.34 12.78 7.74 11.79 7.78C11.79 7.78 11.78 7.78 11.77 7.78C10.8 7.79 9.84 8.16 9.1 8.9C7.59 10.41 7.59 12.84 9.1 14.35C10.6 15.85 13.04 15.85 14.54 14.35C15.28 13.6 15.66 12.63 15.67 11.66C15.67 11.65 15.67 11.65 15.67 11.64C15.71 10.66 16.11 9.67 16.88 8.9C17.64 8.15 18.61 7.75 19.59 7.7C20.57 7.74 21.56 8.14 22.33 8.9C23.08 9.66 23.48 10.63 23.53 11.59C23.5 12.58 23.09 13.58 22.32 14.35C21.56 15.11 20.56 15.52 19.58 15.55C19.57 15.55 19.56 15.55 19.56 15.55C19.45 15.56 19.34 15.58 19.24 15.59C19.11 15.6 18.98 15.6 18.85 15.63C18.73 15.65 18.61 15.7 18.49 15.74C18.38 15.77 18.26 15.79 18.14 15.84C18 15.9 17.88 15.98 17.74 16.05C17.66 16.1 17.56 16.14 17.48 16.19C17.27 16.33 17.07 16.49 16.88 16.68C15.94 17.62 15.59 18.92 15.82 20.14C15.96 20.87 16.32 21.56 16.88 22.12C16.88 22.13 16.88 22.13 16.89 22.13C16.89 22.13 16.89 22.13 16.89 22.14C17.61 22.85 18.54 23.23 19.48 23.26C19.48 23.26 19.49 23.26 19.49 23.26C20.51 23.27 21.54 23.68 22.34 24.47C23.11 25.24 23.52 26.23 23.55 27.22C23.55 27.23 23.55 27.23 23.55 27.24C23.56 28.21 23.94 29.17 24.68 29.91C26.18 31.42 28.62 31.42 30.12 29.91C31.63 28.41 31.63 25.98 30.12 24.47ZM4.02 23.43C5.05 23.43 6.08 23.04 6.86 22.26C8.43 20.69 8.43 18.14 6.86 16.57C5.3 15.01 2.75 15.01 1.18 16.57C0.42 17.33 0 18.34 0 19.42C0 20.49 0.42 21.5 1.18 22.26C1.96 23.04 2.99 23.43 4.02 23.43ZM1.42 16.82C2.14 16.1 3.08 15.74 4.02 15.74C4.96 15.74 5.91 16.1 6.62 16.82C8.06 18.25 8.06 20.58 6.62 22.02C5.19 23.45 2.85 23.45 1.42 22.02C0.72 21.32 0.34 20.4 0.34 19.42C0.34 18.43 0.72 17.51 1.42 16.82ZM14.65 30.03C15.41 29.28 15.83 28.27 15.83 27.19C15.83 26.12 15.41 25.11 14.65 24.35C13.08 22.79 10.53 22.79 8.96 24.35C7.39 25.92 7.39 28.47 8.96 30.03C9.75 30.82 10.77 31.21 11.8 31.21C12.83 31.21 13.86 30.82 14.65 30.03ZM9.2 29.79C7.77 28.36 7.77 26.03 9.2 24.59C9.92 23.88 10.86 23.52 11.8 23.52C12.75 23.52 13.69 23.88 14.41 24.59C15.1 25.29 15.49 26.21 15.49 27.19C15.49 28.18 15.1 29.1 14.41 29.79C12.97 31.23 10.64 31.23 9.2 29.79ZM19.6 39C20.63 39 21.66 38.61 22.45 37.83C24.01 36.26 24.01 33.71 22.45 32.14C20.88 30.58 18.33 30.58 16.76 32.14C16 32.9 15.58 33.91 15.58 34.99C15.58 36.06 16 37.07 16.76 37.83C17.54 38.61 18.57 39 19.6 39ZM17 32.38C17.72 31.67 18.66 31.31 19.6 31.31C20.54 31.31 21.49 31.67 22.2 32.38C23.64 33.82 23.64 36.15 22.2 37.59C20.77 39.02 18.43 39.02 17 37.59C16.3 36.89 15.92 35.97 15.92 34.99C15.92 34 16.3 33.08 17 32.38ZM32.34 22.26C33.12 23.04 34.15 23.43 35.18 23.43C36.21 23.43 37.24 23.04 38.03 22.26C39.59 20.69 39.59 18.14 38.03 16.57C36.46 15.01 33.91 15.01 32.34 16.57C31.58 17.33 31.16 18.34 31.16 19.42C31.16 20.49 31.58 21.5 32.34 22.26ZM32.58 16.82C33.3 16.1 34.24 15.74 35.18 15.74C36.13 15.74 37.07 16.1 37.79 16.82C39.22 18.25 39.22 20.58 37.79 22.02C36.35 23.45 34.02 23.45 32.58 22.02C31.88 21.32 31.5 20.4 31.5 19.42C31.5 18.43 31.88 17.51 32.58 16.82ZM55.01 12.55C53.19 12.55 51.58 13.16 50.33 14.15L50.33 12.84L47.14 12.84L47.14 30.95L50.33 30.95L50.33 25.5C51.57 26.47 53.16 27.06 54.96 27.06C59.25 27.06 62.41 23.77 62.41 19.82L62.41 19.77C62.41 15.79 59.28 12.55 55.01 12.55ZM59.22 19.87C59.22 22.27 57.59 24.29 55.01 24.29C52.53 24.29 50.77 22.24 50.77 19.82L50.77 19.77C50.77 17.34 52.4 15.34 54.96 15.34C57.46 15.34 59.22 17.37 59.22 19.82L59.22 19.87ZM71.2 12.55C66.93 12.55 63.77 15.84 63.77 19.82L63.77 19.87C63.77 23.82 66.91 27.06 71.15 27.06C75.44 27.06 78.6 23.77 78.6 19.82L78.6 19.77C78.6 15.79 75.47 12.55 71.2 12.55ZM75.41 19.87C75.41 22.27 73.78 24.29 71.2 24.29C68.72 24.29 66.96 22.24 66.96 19.82L66.96 19.77C66.96 17.34 68.59 15.34 71.15 15.34C73.65 15.34 75.41 17.37 75.41 19.82L75.41 19.87ZM87.79 12.55C85.63 12.55 84.34 13.69 83.45 15L83.45 12.84L80.26 12.84L80.26 26.74L83.45 26.74L83.45 18.9C83.45 16.74 84.74 15.45 86.58 15.45C88.48 15.45 89.56 16.69 89.56 18.84L89.56 26.74L92.75 26.74L92.75 17.9C92.75 14.66 90.93 12.55 87.79 12.55ZM98.32 8.32L95.13 8.32L95.13 22.9C95.13 25.95 96.79 26.98 99.14 26.98C100.32 26.98 101.22 26.72 102.01 26.27L102.01 23.66C101.38 23.98 100.74 24.14 100.03 24.14C98.95 24.14 98.32 23.64 98.32 22.4L98.32 15.58L102.06 15.58L102.06 12.84L98.32 12.84L98.32 8.32ZM109.89 12.63C107.63 12.63 106.13 13.11 104.6 13.79L105.47 16.34C106.73 15.82 107.89 15.47 109.45 15.47C111.66 15.47 112.87 16.53 112.87 18.45L112.87 18.71C111.79 18.37 110.71 18.13 109.02 18.13C105.78 18.13 103.39 19.61 103.39 22.69L103.39 22.74C103.39 25.53 105.71 27.03 108.34 27.03C110.45 27.03 111.9 26.16 112.84 25.03L112.84 26.74L116.01 26.74L116.01 18.5C116.01 14.79 114 12.63 109.89 12.63ZM112.92 21.71C112.92 23.45 111.34 24.64 109.24 24.64C107.73 24.64 106.55 23.9 106.55 22.58L106.55 22.53C106.55 21.19 107.73 20.37 109.74 20.37C110.97 20.37 112.11 20.61 112.92 20.92L112.92 21.71ZM117.99 26.74L121.18 26.74L121.18 8.32L117.99 8.32L117.99 26.74ZM125.38 8.32L124.53 8.32L124.53 23.07C124.53 25.46 125.93 26.7 128.06 26.7C128.8 26.7 129.49 26.57 130.14 26.25L130.14 25.44C129.46 25.75 128.8 25.91 128.14 25.91C126.4 25.91 125.38 24.94 125.38 22.99L125.38 13.96L130.2 13.96L130.2 13.19L125.38 13.19L125.38 8.32ZM137.39 12.88C133.73 12.88 131.04 15.88 131.04 19.78L131.04 19.83C131.04 24.07 134.04 26.78 137.62 26.78C140.05 26.78 141.84 25.62 143.05 24.04L142.42 23.54C141.37 24.91 139.71 25.99 137.65 25.99C134.67 25.99 132.12 23.75 131.96 20.14L143.47 20.14C143.47 20.04 143.47 19.99 143.47 19.86C143.47 16.3 141.39 12.88 137.39 12.88ZM131.96 19.38C132.12 16.12 134.33 13.67 137.33 13.67C140.65 13.67 142.42 16.49 142.55 19.38L131.96 19.38ZM152.17 25.99C148.85 25.99 146.24 23.17 146.24 19.83L146.24 19.78C146.24 16.43 148.77 13.67 152.11 13.67C154.22 13.67 155.67 14.7 156.83 15.93L157.43 15.33C156.14 13.98 154.59 12.88 152.14 12.88C148.29 12.88 145.34 16.06 145.34 19.8L145.34 19.86C145.34 23.62 148.29 26.78 152.11 26.78C154.59 26.78 156.25 25.65 157.54 24.15L156.93 23.62C155.77 24.91 154.27 25.99 152.17 25.99ZM165.52 12.88C162.68 12.88 161.02 14.77 160.41 16.35L160.41 8.04L159.57 8.04L159.57 26.46L160.41 26.46L160.41 18.99C160.41 15.96 162.62 13.67 165.41 13.67C168.5 13.67 170.16 15.75 170.16 18.83L170.16 26.46L171 26.46L171 18.7C171 15.25 169.02 12.88 165.52 12.88Z" class="shp0"/></g></svg>