<svg xmlns="http://www.w3.org/2000/svg" viewBox="0 0 141 141" width="141" height="141">
	<defs>
		<linearGradient id="grd1" gradientUnits="userSpaceOnUse"  x1="70.499" y1="132.531" x2="70.499" y2="8.449">
			<stop offset="0" stop-color="#ed2d45"  />
			<stop offset="0.991" stop-color="#432b45"  />
		</linearGradient>
	</defs>
	<style>
		tspan { white-space:pre }
		.shp0 { fill: url(#grd1) } 
	</style>
	<g id="BLOCO 6 - PARA SUA EMPRESA">
		<path id="Shape 48" class="shp0" d="M70.5 140.99C31.63 140.99 0 109.36 0 70.49C0 31.62 31.63 -0.01 70.5 -0.01C109.37 -0.01 141 31.62 141 70.49C141 109.36 109.37 140.99 70.5 140.99ZM70.5 12.82C38.7 12.82 12.83 38.69 12.83 70.49C12.83 102.29 38.7 128.16 70.5 128.16C102.3 128.16 128.17 102.29 128.17 70.49C128.17 38.69 102.3 12.82 70.5 12.82ZM76.62 112.89L66.68 112.89C65.85 112.89 65.18 112.21 65.18 111.39L65.18 103.04C57.18 101.79 49.43 98.56 43.22 93.85C42.58 93.37 42.44 92.47 42.89 91.81L50.34 80.92C50.57 80.58 50.93 80.35 51.34 80.29C51.75 80.22 52.16 80.32 52.49 80.57C57.38 84.28 61.42 86.46 65.66 87.61L65.66 75.45C51.08 71.28 45.11 65.03 45.11 54.06L45.11 53.86C45.11 43.14 52.76 35.54 65.18 33.81L65.18 29.59C65.18 28.77 65.85 28.09 66.68 28.09L76.62 28.09C77.44 28.09 78.11 28.77 78.11 29.59L78.11 34.04C84.34 35.11 89.95 37.44 95.25 41.17C95.88 41.62 96.07 42.47 95.69 43.14L89.29 54.32C89.08 54.68 88.73 54.94 88.33 55.04C87.92 55.13 87.49 55.05 87.15 54.82C83.89 52.62 80.7 50.99 77.64 49.95L77.64 61.23C92.15 65.38 98.37 71.9 98.37 82.91L98.37 83.1C98.37 93.79 90.65 101.42 78.11 103.25L78.11 111.39C78.11 112.21 77.44 112.89 76.62 112.89ZM68.18 109.89L75.12 109.89L75.12 101.93C75.12 101.16 75.69 100.52 76.45 100.44C88.3 99.13 95.37 92.65 95.37 83.1L95.37 82.91C95.37 73.11 89.69 67.58 75.75 63.81C75.09 63.64 74.64 63.04 74.64 62.37L74.64 47.94C74.64 47.47 74.85 47.04 75.22 46.75C75.59 46.47 76.07 46.37 76.52 46.49C80.05 47.41 83.73 49.08 87.48 51.45L92.4 42.86C87.46 39.61 82.22 37.63 76.41 36.81C75.67 36.7 75.12 36.07 75.12 35.33L75.12 31.09L68.18 31.09L68.18 35.14C68.18 35.9 67.59 36.55 66.83 36.63C55.11 37.83 48.11 44.28 48.11 53.86L48.11 54.06C48.11 63.93 53.38 69.03 67.55 72.87C68.2 73.04 68.65 73.64 68.65 74.31L68.65 89.51C68.65 89.96 68.45 90.38 68.1 90.67C67.75 90.95 67.3 91.07 66.86 90.97C61.86 89.96 57.33 87.82 51.94 83.9L46.18 92.31C52.13 96.49 59.41 99.3 66.87 100.25C67.62 100.35 68.18 100.98 68.18 101.74L68.18 109.89ZM76.14 91.48C75.78 91.48 75.43 91.35 75.16 91.12C74.83 90.83 74.64 90.42 74.64 89.98L74.64 76.61C74.64 76.11 74.88 75.66 75.28 75.37C75.68 75.1 76.2 75.03 76.66 75.2C81.32 76.93 84.42 79.03 84.42 83.68L84.42 83.87C84.42 86.79 83.02 90.47 76.36 91.47C76.28 91.48 76.21 91.48 76.14 91.48ZM77.64 78.85L77.64 88.14C80.95 87.22 81.42 85.41 81.42 83.87L81.42 83.68C81.42 81.71 80.78 80.32 77.64 78.85ZM67.15 61.48C66.98 61.48 66.81 61.45 66.64 61.39C61.19 59.4 59.06 57.11 59.06 53.19L59.06 53C59.06 48.92 61.95 46.22 66.97 45.59C67.39 45.54 67.82 45.67 68.15 45.95C68.47 46.24 68.65 46.65 68.65 47.08L68.65 59.98C68.65 60.47 68.41 60.93 68.01 61.21C67.76 61.39 67.46 61.48 67.15 61.48ZM65.66 48.89C63.27 49.56 62.06 50.94 62.06 53L62.06 53.19C62.06 54.81 62.36 56.2 65.66 57.75L65.66 48.89Z" />
	</g>
</svg>