<svg xmlns="http://www.w3.org/2000/svg" viewBox="0 0 141 141" width="141" height="141">
	<defs>
		<linearGradient id="grd1" gradientUnits="userSpaceOnUse"  x1="70.499" y1="132.531" x2="70.499" y2="8.449">
			<stop offset="0" stop-color="#ed2d45"  />
			<stop offset="0.991" stop-color="#432b45"  />
		</linearGradient>
	</defs>
	<style>
		tspan { white-space:pre }
		.shp0 { fill: url(#grd1) } 
	</style>
	<g id="BLOCO 6 - PARA SUA EMPRESA">
		<path id="Shape 46" class="shp0" d="M70.5 140.99C31.63 140.99 0 109.37 0 70.49C0 31.62 31.63 -0.01 70.5 -0.01C109.37 -0.01 141 31.62 141 70.49C141 109.37 109.37 140.99 70.5 140.99ZM70.5 12.82C38.7 12.82 12.83 38.69 12.83 70.49C12.83 102.29 38.7 128.16 70.5 128.16C102.3 128.16 128.17 102.29 128.17 70.49C128.17 38.69 102.3 12.82 70.5 12.82ZM58.81 78.76C59.67 81.31 60.45 83.69 61.31 86.04C61.4 86.28 61.99 86.45 62.35 86.45C70.2 86.48 78.05 86.48 85.9 86.48C90.03 86.48 94.17 86.47 98.3 86.48C99.6 86.48 100.42 87.18 100.44 88.26C100.46 89.37 99.6 90.11 98.25 90.11C90.09 90.12 81.94 90.12 73.78 90.12C69.45 90.12 65.12 90.11 60.79 90.1C59.08 90.1 58.74 89.85 58.19 88.23C55.54 80.4 52.92 72.56 50.25 64.74C47.8 57.54 45.3 50.36 42.86 43.15C42.57 42.29 42.2 41.94 41.24 41.98C39.31 42.07 37.38 42.02 35.44 41.99C34.15 41.98 33.36 41.25 33.39 40.15C33.42 39.1 34.17 38.42 35.43 38.41C38.06 38.39 40.69 38.43 43.31 38.39C44.55 38.37 45.24 38.9 45.62 40.05C46.7 43.32 47.87 46.55 48.91 49.83C49.21 50.77 49.66 51.03 50.62 51.03C68.75 51 86.89 51.01 105.02 51.02C107.43 51.02 108.1 51.95 107.27 54.21C105.54 58.92 103.79 63.62 102.08 68.34C101.05 71.17 100.1 74.02 99.1 76.86C98.52 78.51 98.17 78.75 96.38 78.75C84.44 78.76 72.49 78.76 60.54 78.76C60.02 78.76 59.49 78.76 58.81 78.76ZM78.55 63.06C81.42 63.06 84.16 63.08 86.89 63.02C87.16 63.02 87.57 62.6 87.66 62.3C88.11 60.83 88.48 59.33 88.87 57.84C89.14 56.82 89.4 55.8 89.67 54.76C85.85 54.76 82.21 54.76 78.55 54.76C78.55 57.55 78.55 60.23 78.55 63.06ZM74.8 63.03C74.8 60.2 74.8 57.48 74.8 54.76C71.08 54.76 67.44 54.76 63.68 54.76C64.43 57.61 65.15 60.32 65.87 63.03C68.88 63.03 71.78 63.03 74.8 63.03ZM91.28 63.05C94.2 63.05 96.97 63.07 99.74 63.02C99.99 63.02 100.34 62.61 100.46 62.32C100.94 61.14 101.36 59.94 101.79 58.75C102.26 57.43 102.72 56.11 103.24 54.66C100.07 54.66 97.1 54.65 94.14 54.68C93.87 54.68 93.42 54.92 93.36 55.14C92.65 57.73 91.98 60.33 91.28 63.05ZM62.1 63.05C61.38 60.31 60.72 57.74 60.02 55.18C59.96 54.97 59.61 54.69 59.39 54.68C56.51 54.65 53.63 54.66 50.58 54.66C51.52 57.41 52.4 59.99 53.31 62.56C53.39 62.78 53.73 63.03 53.95 63.03C56.61 63.07 59.26 63.05 62.1 63.05ZM88.07 75.12C90.58 75.12 92.93 75.14 95.27 75.09C95.56 75.08 95.96 74.69 96.1 74.38C96.57 73.33 96.98 72.25 97.36 71.16C97.87 69.73 98.32 68.28 98.84 66.72C96.08 66.72 93.46 66.71 90.84 66.74C90.62 66.75 90.26 67 90.2 67.2C89.48 69.79 88.8 72.39 88.07 75.12ZM65.31 75.12C64.77 73.07 64.33 71.17 63.77 69.3C63 66.7 62.96 66.71 60.18 66.71C59.64 66.71 59.11 66.71 58.57 66.71C57.32 66.71 56.07 66.71 54.7 66.71C55.63 69.47 56.48 72.03 57.38 74.56C57.46 74.8 57.85 75.09 58.1 75.09C60.44 75.13 62.78 75.12 65.31 75.12ZM78.55 66.77C78.55 69.57 78.55 72.31 78.55 75.12C80.33 75.12 81.99 75.17 83.64 75.08C83.98 75.06 84.48 74.6 84.6 74.24C85 73.04 85.27 71.8 85.58 70.57C85.88 69.33 86.17 68.08 86.48 66.77C83.77 66.77 81.2 66.77 78.55 66.77ZM66.88 66.77C67.56 69.45 68.19 71.99 68.87 74.52C68.93 74.76 69.32 75.08 69.57 75.09C71.29 75.14 73.02 75.12 74.84 75.12C74.84 72.27 74.84 69.55 74.84 66.77C72.16 66.77 69.59 66.77 66.88 66.77ZM99.34 97.39C99.3 100.34 96.92 102.63 93.95 102.58C90.98 102.53 88.68 100.15 88.75 97.19C88.82 94.23 91.2 91.94 94.15 91.99C97.1 92.03 99.38 94.41 99.34 97.39ZM68.68 97.26C68.69 100.2 66.34 102.57 63.39 102.59C60.47 102.61 58.06 100.24 58.03 97.32C58 94.4 60.39 92.01 63.33 92C66.28 91.98 68.68 94.34 68.68 97.26Z" />
	</g>
</svg>